<?xml version="1.0" encoding="UTF-8"?>
<svg width="50px" height="50px" viewBox="0 0 50 50" version="1.1" xmlns="http://www.w3.org/2000/svg" xmlns:xlink="http://www.w3.org/1999/xlink">
    <!-- Generator: Sketch 52.2 (67145) - http://www.bohemiancoding.com/sketch -->
    <title>logo-yg</title>
    <desc>Created with Sketch.</desc>
    <g id="current" stroke="none" stroke-width="1" fill="none" fill-rule="evenodd">
        <g id="Desktop-HD" transform="translate(-515.000000, -853.000000)">
            <g id="work-section" transform="translate(96.000000, 789.000000)">
                <g id="logo-yg" transform="translate(420.000000, 65.000000)">
                    <rect id="Rectangle-9" stroke-opacity="0.32" stroke="#FFFFFF" fill="#000000" x="-0.5" y="-0.5" width="49" height="49" rx="24.5"></rect>
                    <path d="M32.5733607,33.7770675 C30.3635952,31.5060468 27.725616,30.3822723 25.2914391,29.9609284 C24.2981895,33.1788279 22.7885647,36 19.0479927,36 C16.4850082,36 15,34.6804379 15,32.8456456 C15,30.063402 18.844763,28.2337619 23.0719414,28.1158314 C23.3593254,27.0023615 23.7125444,25.4177421 23.8465043,24.2355747 C22.97691,25.6438709 21.422632,26.7126875 20.1906591,26.7126875 C18.7995372,26.7126875 17.6522911,25.9427045 17.1754168,23.5777974 C16.5645827,20.5459533 17.0763781,14.0609212 16.4804284,12.4854614 C16.8576915,12.2845216 17.5234835,12 18.218472,12 C19.420676,12 19.4653293,12.7945996 19.5546359,14.5658469 C19.6639792,16.7733225 19.4109439,20.7428858 19.788207,22.7145004 C20.0114734,23.8920879 20.5083844,24.3775493 21.1793288,24.3775493 C22.1124681,24.3775493 23.6129332,22.6944637 24.1939985,20.7915464 C24.8895594,18.5245331 25.5599313,13.9618825 25.5501992,12.3778356 C25.8581924,12.2060921 26.5932543,12.0978938 27.059824,12.0978938 C28.1378003,12.0978938 28.326718,12.7012857 28.2769124,13.5943515 C28.1727214,15.5373423 26.6676765,24.4073182 25.7585812,28.2383417 C28.7486344,28.5675166 31.2223123,29.5143954 33.050235,30.559168 C33.6856857,30.9221191 33.9146769,31.3096868 33.9146769,31.8003006 C33.9095246,32.4036925 33.2735014,33.3459915 32.5733607,33.77764 L32.5733607,33.7770675 Z M17.642559,32.9149154 C17.642559,33.8514896 18.1240131,34.5338835 19.2019894,34.5338835 C20.6377645,34.5338835 21.6212819,32.8261813 22.5899148,29.7697207 C20.3692722,29.8928035 17.642559,31.1093195 17.642559,32.9149154 Z" id="Combined-Shape" fill="#FFFFFF"></path>
                </g>
            </g>
        </g>
    </g>
</svg>