<?xml version="1.0" encoding="UTF-8"?>
<svg width="50px" height="50px" viewBox="0 0 50 50" version="1.1" xmlns="http://www.w3.org/2000/svg" xmlns:xlink="http://www.w3.org/1999/xlink">
    <!-- Generator: Sketch 52.2 (67145) - http://www.bohemiancoding.com/sketch -->
    <title>logo-sz</title>
    <desc>Created with Sketch.</desc>
    <g id="current" stroke="none" stroke-width="1" fill="none" fill-rule="evenodd">
        <g id="Desktop-HD" transform="translate(-159.000000, -853.000000)">
            <g id="work-section" transform="translate(96.000000, 789.000000)">
                <g id="logo-sz" transform="translate(64.000000, 65.000000)">
                    <rect id="Rectangle-9" stroke-opacity="0.32" stroke="#FFFFFF" fill="#000000" x="-0.5" y="-0.5" width="49" height="49" rx="24.5"></rect>
                    <path d="M19.2338,19.776 L19.2338,19.7748 L24.4676,21.8682 L34.9346,17.6442 L34.9346,31.776 L24.467,36 L14,31.7754 L14,28.935 L24.467,33.159 L32.318,29.9808 L32.318,21.5328 L24.467,24.7104 L19.2338,22.5792 L19.2338,19.776 Z M24.467,16.224 L24.4676,16.224 L34.9346,12 L34.9346,14.8416 L24.467,19.0656 L16.6166,15.888 L16.6166,24.336 L24.467,27.5142 L29.7008,25.4208 L29.7008,28.2246 L24.467,30.3546 L14,26.1306 L14,12 L24.467,16.224 Z" id="Combined-Shape" fill="#FFFFFF"></path>
                </g>
            </g>
        </g>
    </g>
</svg>