<?xml version="1.0" encoding="UTF-8"?>
<svg width="50px" height="50px" viewBox="0 0 50 50" version="1.1" xmlns="http://www.w3.org/2000/svg" xmlns:xlink="http://www.w3.org/1999/xlink">
    <!-- Generator: Sketch 52.2 (67145) - http://www.bohemiancoding.com/sketch -->
    <title>logo-px</title>
    <desc>Created with Sketch.</desc>
    <g id="current" stroke="none" stroke-width="1" fill="none" fill-rule="evenodd">
        <g id="Desktop-HD" transform="translate(-95.000000, -853.000000)">
            <g id="work-section" transform="translate(96.000000, 789.000000)">
                <g id="logo-px" transform="translate(0.000000, 65.000000)">
                    <rect id="Rectangle-9" stroke-opacity="0.32" stroke="#FFFFFF" fill="#000000" x="-0.5" y="-0.5" width="49" height="49" rx="24.5"></rect>
                    <g id="px-logo" transform="translate(15.000000, 16.000000)" fill="#FFFFFF">
                        <path d="M9.32591534,9.37972603 C8.71744732,9.96164384 8.01848676,10.2523679 7.22856236,10.2523679 C6.43910928,10.2523679 5.74014873,9.95741683 5.13168071,9.36751468 C4.52321269,8.77714286 4.21874302,7.94113503 4.21874302,6.85949119 C4.21874302,5.77784736 4.52321269,4.94606654 5.13168071,4.36414873 C5.74014873,3.78223092 6.43910928,3.49103718 7.22856236,3.49103718 C8.01848676,3.49103718 8.71744732,3.78645793 9.32591534,4.37636008 C9.93438336,4.9667319 10.238853,5.80227006 10.238853,6.88438356 C10.238853,7.9660274 9.93438336,8.79780822 9.32591534,9.37972603 M12.7057172,1.83170254 C11.4887811,0.512407045 9.99706829,0.0145596869 8.24566073,0.0145596869 C6.49378185,0.0145596869 5.1561891,0.500195695 4.21874302,1.79506849 L4.21874302,1.15463195e-14 L-4.4408921e-13,1.15463195e-14 L-4.4408921e-13,15.379726 L4.21874302,15.379726 L4.21874302,11.727593 C5.20567721,13.1699413 6.53949943,13.7274364 8.2663986,13.7274364 C9.99376908,13.7274364 11.4887811,13.235225 12.7057172,11.9243836 C13.9231245,10.6130724 14.5315925,8.93307241 14.5315925,6.88438356 C14.5315925,4.83522505 13.9231245,3.15099804 12.7057172,1.83170254" id="Fill-16"></path>
                        <rect id="pixel" x="15" y="12" width="3.4406015" height="3.42857143"></rect>
                    </g>
                </g>
            </g>
        </g>
    </g>
</svg>